# xmcd
#
# Track frame offsets:
#	150
#	14967
#	31116
#	46421
#	67750
#	83429
#	100652
#	103712
#	124195
#	143479
#	159554
#	181228
#	198923
#	216069
#	223654
#	233097
#	249189
#
# Disc length: 3558 seconds
#
# Revision: 1
# Processed by: cddbd v1.5.1PL0 Copyright (c) Steve Scherf et al.
# Submitted via: audiograbber 1.83.01
#
DISCID=d90de411
DTITLE=Blackstreet - Level II
DYEAR=1900
DGENRE=R&B
TTITLE0=Ticket To Ride (Intro)
TTITLE1=Don't Touch
TTITLE2=She's Hot
TTITLE3=Deep
TTITLE4=Ooh Girl
TTITLE5=Friend Of Mine
TTITLE6=Inerlude: What's The Fuss
TTITLE7=You Made Me
TTITLE8=It's So Hard To Say Goodbye
TTITLE9=Why, Why
TTITLE10=Look In The Water
TTITLE11=Baby You're All I Want
TTITLE12=How We Do
TTITLE13=Bygones
TTITLE14=Interlude: Still Feelin' You
TTITLE15=Brown Eyes
TTITLE16=Wizzy Wow
EXTD=
EXTT0=
EXTT1=
EXTT2=
EXTT3=
EXTT4=
EXTT5=
EXTT6=
EXTT7=
EXTT8=
EXTT9=
EXTT10=
EXTT11=
EXTT12=
EXTT13=
EXTT14=
EXTT15=
EXTT16=
PLAYORDER=
